<svg width="13" height="13" viewBox="0 0 13 13" fill="none" xmlns="http://www.w3.org/2000/svg">
<g clip-path="url(#clip0_135_2033)">
<path d="M13.033 4.99341H9.783C9.72714 4.99341 9.68143 5.03911 9.68143 5.09497V5.70435C9.68143 5.7602 9.72714 5.80591 9.783 5.80591H13.033C13.0889 5.80591 13.1346 5.7602 13.1346 5.70435V5.09497C13.1346 5.03911 13.0889 4.99341 13.033 4.99341ZM11.3318 6.71997H9.783C9.72714 6.71997 9.68143 6.76567 9.68143 6.82153V7.43091C9.68143 7.48677 9.72714 7.53247 9.783 7.53247H11.3318C11.3877 7.53247 11.4334 7.48677 11.4334 7.43091V6.82153C11.4334 6.76567 11.3877 6.71997 11.3318 6.71997ZM7.0954 3.85718H6.54569C6.46698 3.85718 6.4035 3.92065 6.4035 3.99937V7.1478C6.4035 7.19351 6.42509 7.2354 6.4619 7.26206L8.35223 8.64077C8.41571 8.68647 8.50458 8.67378 8.55028 8.6103L8.87655 8.1647V8.16343C8.92225 8.09995 8.90829 8.01108 8.84481 7.96538L7.23632 6.80249V3.99937C7.23759 3.92065 7.17284 3.85718 7.0954 3.85718Z" fill="#202020"/>
<path d="M11.2531 8.31841H10.5194C10.4483 8.31841 10.381 8.35522 10.3429 8.41616C10.1817 8.67133 9.99377 8.90747 9.77795 9.12329C9.40598 9.49526 8.97307 9.78725 8.49192 9.99038C7.99299 10.2011 7.46359 10.3078 6.9177 10.3078C6.37053 10.3078 5.84113 10.2011 5.34348 9.99038C4.86233 9.78725 4.42942 9.49526 4.05744 9.12329C3.68547 8.75132 3.39348 8.31841 3.19035 7.83725C2.97961 7.3396 2.87297 6.8102 2.87297 6.26303C2.87297 5.71587 2.97961 5.18774 3.19035 4.68882C3.39348 4.20766 3.68547 3.77475 4.05744 3.40278C4.42942 3.03081 4.86233 2.73882 5.34348 2.53569C5.84113 2.32495 6.3718 2.21831 6.9177 2.21831C7.46486 2.21831 7.99426 2.32495 8.49192 2.53569C8.97307 2.73882 9.40598 3.03081 9.77795 3.40278C9.99377 3.6186 10.1817 3.85473 10.3429 4.10991C10.381 4.17085 10.4483 4.20766 10.5194 4.20766H11.2531C11.3407 4.20766 11.3966 4.11626 11.3572 4.03882C10.5295 2.39223 8.85119 1.32202 6.97736 1.30044C4.23391 1.26616 1.9551 3.51196 1.95002 6.25288C1.94494 8.99887 4.17043 11.2269 6.91643 11.2269C8.81438 11.2269 10.5206 10.1529 11.3572 8.48725C11.3966 8.40981 11.3395 8.31841 11.2531 8.31841Z" fill="#202020"/>
</g>
<defs>
<clipPath id="clip0_135_2033">
<rect width="13" height="13" fill="white"/>
</clipPath>
</defs>
</svg>
