<svg width="13" height="14" viewBox="0 0 13 14" fill="none" xmlns="http://www.w3.org/2000/svg">
<path d="M10.1562 5.6875C10.1562 4.64321 9.77104 3.64169 9.08536 2.90327C8.39968 2.16484 7.4697 1.75 6.5 1.75C5.5303 1.75 4.60032 2.16484 3.91464 2.90327C3.22896 3.64169 2.84375 4.64321 2.84375 5.6875C2.84375 7.30275 4.04381 9.408 6.5 11.9297C8.95619 9.408 10.1562 7.30275 10.1562 5.6875ZM6.5 13.125C3.52056 10.2086 2.03125 7.72888 2.03125 5.6875C2.03125 4.41115 2.50206 3.18707 3.34012 2.28455C4.17817 1.38203 5.31481 0.875 6.5 0.875C7.68519 0.875 8.82183 1.38203 9.65988 2.28455C10.4979 3.18707 10.9688 4.41115 10.9688 5.6875C10.9688 7.72888 9.47944 10.2086 6.5 13.125Z" fill="#202020"/>
<path d="M6.5 7C6.82323 7 7.13323 6.86172 7.36179 6.61558C7.59035 6.36944 7.71875 6.0356 7.71875 5.6875C7.71875 5.3394 7.59035 5.00556 7.36179 4.75942C7.13323 4.51328 6.82323 4.375 6.5 4.375C6.17677 4.375 5.86677 4.51328 5.63821 4.75942C5.40965 5.00556 5.28125 5.3394 5.28125 5.6875C5.28125 6.0356 5.40965 6.36944 5.63821 6.61558C5.86677 6.86172 6.17677 7 6.5 7ZM6.5 7.875C5.96128 7.875 5.44462 7.64453 5.06369 7.2343C4.68276 6.82406 4.46875 6.26766 4.46875 5.6875C4.46875 5.10734 4.68276 4.55094 5.06369 4.1407C5.44462 3.73047 5.96128 3.5 6.5 3.5C7.03872 3.5 7.55538 3.73047 7.93631 4.1407C8.31724 4.55094 8.53125 5.10734 8.53125 5.6875C8.53125 6.26766 8.31724 6.82406 7.93631 7.2343C7.55538 7.64453 7.03872 7.875 6.5 7.875Z" fill="#202020"/>
</svg>
