<svg width="21" height="22" viewBox="0 0 21 22" fill="none" xmlns="http://www.w3.org/2000/svg">
<path d="M16.4062 8.9375C16.4062 7.29647 15.784 5.72266 14.6763 4.56228C13.5687 3.4019 12.0664 2.75 10.5 2.75C8.93357 2.75 7.43129 3.4019 6.32365 4.56228C5.21601 5.72266 4.59375 7.29647 4.59375 8.9375C4.59375 11.4757 6.53231 14.784 10.5 18.7467C14.4677 14.784 16.4062 11.4757 16.4062 8.9375ZM10.5 20.625C5.68706 16.0421 3.28125 12.1454 3.28125 8.9375C3.28125 6.9318 4.0418 5.00825 5.39557 3.59001C6.74935 2.17176 8.58547 1.375 10.5 1.375C12.4145 1.375 14.2506 2.17176 15.6044 3.59001C16.9582 5.00825 17.7188 6.9318 17.7188 8.9375C17.7188 12.1454 15.3129 16.0421 10.5 20.625Z" fill="#545454"/>
<path d="M10.5 11C11.0221 11 11.5229 10.7827 11.8921 10.3959C12.2613 10.0091 12.4688 9.48451 12.4688 8.9375C12.4688 8.39049 12.2613 7.86589 11.8921 7.47909C11.5229 7.0923 11.0221 6.875 10.5 6.875C9.97785 6.875 9.4771 7.0923 9.10788 7.47909C8.73867 7.86589 8.53125 8.39049 8.53125 8.9375C8.53125 9.48451 8.73867 10.0091 9.10788 10.3959C9.4771 10.7827 9.97785 11 10.5 11ZM10.5 12.375C9.62976 12.375 8.79516 12.0128 8.17981 11.3682C7.56445 10.7235 7.21875 9.84918 7.21875 8.9375C7.21875 8.02582 7.56445 7.15148 8.17981 6.50682C8.79516 5.86216 9.62976 5.5 10.5 5.5C11.3702 5.5 12.2048 5.86216 12.8202 6.50682C13.4355 7.15148 13.7812 8.02582 13.7812 8.9375C13.7812 9.84918 13.4355 10.7235 12.8202 11.3682C12.2048 12.0128 11.3702 12.375 10.5 12.375Z" fill="#545454"/>
</svg>
